<svg xmlns="http://www.w3.org/2000/svg" viewBox="0 0 500 500"><g id="freepik--background-complete--inject-52"><rect x="416.78" y="398.49" width="33.12" height="0.25" style="fill:#ebebeb"></rect><rect x="322.53" y="401.21" width="8.69" height="0.25" style="fill:#ebebeb"></rect><rect x="396.59" y="389.21" width="19.19" height="0.25" style="fill:#ebebeb"></rect><rect x="52.46" y="390.89" width="43.19" height="0.25" style="fill:#ebebeb"></rect><rect x="104.56" y="390.89" width="6.33" height="0.25" style="fill:#ebebeb"></rect><rect x="131.47" y="395.11" width="93.68" height="0.25" style="fill:#ebebeb"></rect><path d="M237,337.8H43.92a5.71,5.71,0,0,1-5.71-5.71V60.66A5.71,5.71,0,0,1,43.92,55H237a5.71,5.71,0,0,1,5.71,5.71V332.09A5.71,5.71,0,0,1,237,337.8ZM43.92,55.2a5.47,5.47,0,0,0-5.46,5.46V332.09a5.47,5.47,0,0,0,5.46,5.46H237a5.47,5.47,0,0,0,5.46-5.46V60.66A5.47,5.47,0,0,0,237,55.2Z" style="fill:#ebebeb"></path><path d="M453.31,337.8H260.21a5.72,5.72,0,0,1-5.71-5.71V60.66A5.72,5.72,0,0,1,260.21,55h193.1A5.71,5.71,0,0,1,459,60.66V332.09A5.71,5.71,0,0,1,453.31,337.8ZM260.21,55.2a5.47,5.47,0,0,0-5.46,5.46V332.09a5.47,5.47,0,0,0,5.46,5.46h193.1a5.47,5.47,0,0,0,5.46-5.46V60.66a5.47,5.47,0,0,0-5.46-5.46Z" style="fill:#ebebeb"></path><rect y="382.4" width="500" height="0.25" style="fill:#ebebeb"></rect><polygon points="176.59 209.65 199.08 209.65 180.98 106.99 158.49 106.99 176.59 209.65" style="fill:#fafafa"></polygon><polygon points="163.5 209.65 169.56 209.65 151.46 106.99 145.4 106.99 163.5 209.65" style="fill:#fafafa"></polygon><polygon points="97.69 211.43 103.92 211.43 85.32 105.93 79.09 105.93 97.69 211.43" style="fill:#fafafa"></polygon><polygon points="110.11 211.43 121.85 211.43 103.25 105.93 91.5 105.93 110.11 211.43" style="fill:#fafafa"></polygon><path d="M141.56,105.4h73.49v106H141.56Zm67.68,5.81H147.37v94.42h61.87Z" style="fill:#e6e6e6"></path><path d="M65.16,102.49H218V214.35H65.16Zm147,5.82H71V208.53H212.15Z" style="fill:#f5f5f5"></path><rect x="331.53" y="90.81" width="41.71" height="54.19" transform="translate(470.29 -234.48) rotate(90)" style="fill:#f5f5f5"></rect><rect x="334.73" y="94.98" width="35.3" height="45.86" transform="translate(470.29 -234.48) rotate(90)" style="fill:#ebebeb"></rect><rect x="336.94" y="97.85" width="30.88" height="40.12" transform="translate(470.29 -234.48) rotate(90)" style="fill:#fafafa"></rect><circle cx="359.67" cy="114.5" r="8.31" style="fill:#f0f0f0"></circle><circle cx="347.25" cy="119.64" r="8.31" style="fill:#f5f5f5"></circle><rect x="385.47" y="110.23" width="24.82" height="32.24" style="fill:#e0e0e0"></rect><rect x="387.37" y="112.71" width="21" height="27.28" style="fill:#f0f0f0"></rect><rect x="391.09" y="117.54" width="13.56" height="17.62" style="fill:#fafafa"></rect><ellipse cx="306.39" cy="119.09" rx="11.84" ry="17.34" style="fill:#f5f5f5"></ellipse><ellipse cx="306.39" cy="119.09" rx="8.55" ry="12.53" style="fill:#ebebeb"></ellipse><ellipse cx="306.39" cy="119.09" rx="6.05" ry="8.86" style="fill:#fafafa"></ellipse></g><g id="freepik--Shadow--inject-52"><ellipse id="freepik--path--inject-52" cx="245.18" cy="412.39" rx="193.89" ry="11.32" style="fill:#f5f5f5"></ellipse></g><g id="freepik--Furniture--inject-52"><polygon points="398.11 411.75 242.34 411.75 240.42 406.5 398.11 406.5 398.11 411.75" style="fill:#263238"></polygon><polygon points="398.11 411.75 242.34 411.75 240.42 406.5 398.11 406.5 398.11 411.75" style="fill:#fff;opacity:0.2"></polygon><polygon points="430.67 411.75 398.11 411.75 398.11 406.5 432.58 406.5 430.67 411.75" style="fill:#263238"></polygon><rect x="411.43" y="335.55" width="30.16" height="71.38" style="fill:#407BFF"></rect><rect x="411.43" y="335.55" width="30.16" height="71.38" style="fill:#fff;opacity:0.5"></rect><rect x="233.12" y="335.55" width="180.35" height="71.38" style="fill:#407BFF"></rect><rect x="233.12" y="335.55" width="180.35" height="71.38" style="fill:#fff;opacity:0.7000000000000001"></rect><path d="M290,341.31l-.22,1.6c-.12.83-1.22,1.46-2.54,1.46H272.1c-1.32,0-2.42-.63-2.53-1.46l-.23-1.6H239.61v18.82h80.11V341.31Z" style="fill:#fff;opacity:0.8"></path><path d="M290,362.18l-.22,1.61c-.12.82-1.22,1.46-2.54,1.46H272.1c-1.32,0-2.42-.64-2.53-1.46l-.23-1.61H239.61V381h80.11V362.18Z" style="fill:#fff;opacity:0.8"></path><path d="M290,383.06l-.22,1.6c-.12.83-1.22,1.47-2.54,1.47H272.1c-1.32,0-2.42-.64-2.53-1.47l-.23-1.6H239.61v18.82h80.11V383.06Z" style="fill:#fff;opacity:0.8"></path><path d="M376.1,341.31l-.22,1.6c-.12.83-1.22,1.46-2.54,1.46H358.22c-1.32,0-2.42-.63-2.53-1.46l-.23-1.6H325.73v18.82h80.11V341.31Z" style="fill:#fff;opacity:0.8"></path><path d="M376.1,362.18l-.22,1.61c-.12.82-1.22,1.46-2.54,1.46H358.22c-1.32,0-2.42-.64-2.53-1.46l-.23-1.61H325.73V381h80.11V362.18Z" style="fill:#fff;opacity:0.8"></path><path d="M376.1,383.06l-.22,1.6c-.12.83-1.22,1.47-2.54,1.47H358.22c-1.32,0-2.42-.64-2.53-1.47l-.23-1.6H325.73v18.82h80.11V383.06Z" style="fill:#fff;opacity:0.8"></path></g><g id="freepik--device-2--inject-52"><path d="M424.67,325.19h-152a7,7,0,0,1-7.07-7.74L275.1,209a8.62,8.62,0,0,1,8.42-7.75h152a7,7,0,0,1,7.07,7.75l-9.49,108.46A8.62,8.62,0,0,1,424.67,325.19Z" style="fill:#263238"></path><path d="M424.67,325.19h-152a7,7,0,0,1-7.07-7.74L275.1,209a8.62,8.62,0,0,1,8.42-7.75h152a7,7,0,0,1,7.07,7.75l-9.49,108.46A8.62,8.62,0,0,1,424.67,325.19Z" style="fill:#fff;opacity:0.4"></path><path d="M421.91,325.19h-152a7,7,0,0,1-7.07-7.74L272.34,209a8.62,8.62,0,0,1,8.42-7.75h152a7,7,0,0,1,7.07,7.75l-9.49,108.46A8.62,8.62,0,0,1,421.91,325.19Z" style="fill:#263238"></path><path d="M421.91,325.19h-152a7,7,0,0,1-7.07-7.74L272.34,209a8.62,8.62,0,0,1,8.42-7.75h152a7,7,0,0,1,7.07,7.75l-9.49,108.46A8.62,8.62,0,0,1,421.91,325.19Z" style="fill:#fff;opacity:0.7000000000000001"></path><polygon points="424.21 317.44 268.98 317.44 278.46 208.99 433.69 208.99 424.21 317.44" style="fill:#407BFF"></polygon><polygon points="424.21 317.44 268.98 317.44 278.46 208.99 433.69 208.99 424.21 317.44" style="fill:#fff;opacity:0.5"></polygon><path d="M253.27,323.12h180a0,0,0,0,1,0,0v1.95a10.49,10.49,0,0,1-10.49,10.49H263.76a10.49,10.49,0,0,1-10.49-10.49v-1.95a0,0,0,0,1,0,0Z" style="fill:#263238"></path><path d="M253.27,323.12h180a0,0,0,0,1,0,0v1.95a10.49,10.49,0,0,1-10.49,10.49H263.76a10.49,10.49,0,0,1-10.49-10.49v-1.95a0,0,0,0,1,0,0Z" style="fill:#fff;opacity:0.2"></path><path d="M240.71,323.12h180a0,0,0,0,1,0,0v1.95a10.49,10.49,0,0,1-10.49,10.49H251.21a10.49,10.49,0,0,1-10.49-10.49v-1.95A0,0,0,0,1,240.71,323.12Z" style="fill:#263238"></path><path d="M240.71,323.12h180a0,0,0,0,1,0,0v1.95a10.49,10.49,0,0,1-10.49,10.49H251.21a10.49,10.49,0,0,1-10.49-10.49v-1.95A0,0,0,0,1,240.71,323.12Z" style="fill:#fff;opacity:0.5"></path><path d="M314.6,323.12a7.23,7.23,0,0,0,6.27,3.62H340.6a7.24,7.24,0,0,0,6.27-3.62Z" style="opacity:0.30000000000000004"></path></g><g id="freepik--Article--inject-52"><path d="M415.63,297H251a4.36,4.36,0,0,1-4.41-4.84L256.38,180a5.37,5.37,0,0,1,5.25-4.83H426.28a4.35,4.35,0,0,1,4.41,4.83l-9.81,112.12A5.38,5.38,0,0,1,415.63,297Z" style="fill:#407BFF"></path><path d="M415.63,297H251a4.36,4.36,0,0,1-4.41-4.84L256.38,180a5.37,5.37,0,0,1,5.25-4.83H426.28a4.35,4.35,0,0,1,4.41,4.83l-9.81,112.12A5.38,5.38,0,0,1,415.63,297Z" style="fill:#fff;opacity:0.8"></path><path d="M426.28,175.21H261.63a5.37,5.37,0,0,0-5.25,4.83l-.5,5.63H430.2l.49-5.63A4.35,4.35,0,0,0,426.28,175.21Z" style="fill:#407BFF"></path><path d="M426.28,175.21H261.63a5.37,5.37,0,0,0-5.25,4.83l-.5,5.63H430.2l.49-5.63A4.35,4.35,0,0,0,426.28,175.21Z" style="fill:#fff;opacity:0.30000000000000004"></path><path d="M266.25,180.44a2.28,2.28,0,0,1-2.22,2,1.84,1.84,0,0,1-1.85-2,2.26,2.26,0,0,1,2.21-2A1.84,1.84,0,0,1,266.25,180.44Z" style="fill:#407BFF"></path><path d="M273.32,180.44a2.27,2.27,0,0,1-2.21,2,1.84,1.84,0,0,1-1.86-2,2.27,2.27,0,0,1,2.21-2A1.83,1.83,0,0,1,273.32,180.44Z" style="fill:#407BFF"></path><path d="M280.4,180.44a2.28,2.28,0,0,1-2.22,2,1.84,1.84,0,0,1-1.85-2,2.25,2.25,0,0,1,2.21-2A1.84,1.84,0,0,1,280.4,180.44Z" style="fill:#407BFF"></path><path d="M326.63,197.74h-3l-.7,1.39h-1.54l3.47-6.51h1.49l2.34,6.51h-1.58Zm-.38-1.15-.81-2.49-1.25,2.49Z" style="fill:#263238"></path><path d="M333.49,199.13l-1.1-1.81H331l-.16,1.81h-1.51l.57-6.51h2.82a3.49,3.49,0,0,1,1.48.29,2,2,0,0,1,.91.82,2.12,2.12,0,0,1,.23,1.25,2.29,2.29,0,0,1-.46,1.25,2.49,2.49,0,0,1-1.06.81l1.28,2.09Zm.06-5a1.47,1.47,0,0,0-1-.29h-1.23l-.2,2.27h1.23a1.67,1.67,0,0,0,1.06-.3,1.19,1.19,0,0,0,.43-.84A1,1,0,0,0,333.55,194.14Z" style="fill:#263238"></path><path d="M337.9,193.85h-2.09l.11-1.23h5.68l-.11,1.23H339.4l-.46,5.28h-1.51Z" style="fill:#263238"></path><path d="M342.41,192.62h1.5l-.57,6.51h-1.5Z" style="fill:#263238"></path><path d="M346.23,198.81a2.85,2.85,0,0,1-1.16-1.2,3.22,3.22,0,0,1-.31-1.74,3.51,3.51,0,0,1,.62-1.73,3.62,3.62,0,0,1,1.37-1.2,3.93,3.93,0,0,1,1.84-.43,3.77,3.77,0,0,1,1.51.29,2.74,2.74,0,0,1,1.07.86l-1,.89a1.92,1.92,0,0,0-1.57-.76,2.28,2.28,0,0,0-1.11.27,2,2,0,0,0-.8.74,2.17,2.17,0,0,0-.36,1.07,2,2,0,0,0,.17,1.08,1.61,1.61,0,0,0,.67.74,2.06,2.06,0,0,0,1.06.27,2.31,2.31,0,0,0,1.71-.77l.88.89a3.27,3.27,0,0,1-1.22.86,4,4,0,0,1-1.57.3A3.5,3.5,0,0,1,346.23,198.81Z" style="fill:#263238"></path><path d="M352.28,192.62h1.5l-.46,5.28h3.27l-.11,1.23h-4.77Z" style="fill:#263238"></path><path d="M362.48,197.92l-.11,1.21h-5l.57-6.51h4.92l-.11,1.21h-3.42l-.13,1.41h3l-.1,1.17h-3l-.13,1.51Z" style="fill:#263238"></path><path d="M320.28,264.58h35.14c1.12,0,1.27-1.74.15-1.74H320.43c-1.12,0-1.27,1.74-.15,1.74Z" style="fill:#263238"></path><path d="M319.65,271.77h30c1.12,0,1.28-1.74.15-1.74h-30c-1.13,0-1.28,1.74-.16,1.74Z" style="fill:#263238"></path><path d="M319,279h33.67c1.12,0,1.27-1.74.15-1.74H319.18c-1.13,0-1.28,1.74-.16,1.74Z" style="fill:#263238"></path><path d="M318.39,286.15h31.46c1.12,0,1.28-1.75.15-1.75H318.55c-1.13,0-1.28,1.75-.16,1.75Z" style="fill:#263238"></path><path d="M270.55,264.58h34.6c1.12,0,1.28-1.74.15-1.74H270.71c-1.13,0-1.28,1.74-.16,1.74Z" style="fill:#263238"></path><path d="M269.92,271.77h34.6c1.13,0,1.28-1.74.16-1.74h-34.6c-1.13,0-1.28,1.74-.16,1.74Z" style="fill:#263238"></path><path d="M269.3,279h39c1.12,0,1.27-1.74.15-1.74h-39c-1.12,0-1.28,1.74-.15,1.74Z" style="fill:#263238"></path><path d="M268.67,286.15h31.7c1.13,0,1.28-1.75.16-1.75H268.82c-1.12,0-1.28,1.75-.15,1.75Z" style="fill:#263238"></path><path d="M271.81,250.2h34.6c1.12,0,1.28-1.74.15-1.74H272c-1.12,0-1.27,1.74-.15,1.74Z" style="fill:#263238"></path><path d="M271.18,257.39h37.54c1.12,0,1.28-1.74.16-1.74H271.34c-1.13,0-1.28,1.74-.16,1.74Z" style="fill:#263238"></path><path d="M366.13,264.58H402c1.13,0,1.28-1.74.16-1.74H366.29c-1.13,0-1.28,1.74-.16,1.74Z" style="fill:#263238"></path><path d="M365.5,271.77h32.2c1.12,0,1.27-1.74.15-1.74H365.66c-1.13,0-1.28,1.74-.16,1.74Z" style="fill:#263238"></path><path d="M364.88,279h34.39c1.13,0,1.28-1.74.16-1.74H365c-1.12,0-1.28,1.74-.15,1.74Z" style="fill:#263238"></path><path d="M364.25,286.15h32.92c1.13,0,1.28-1.75.16-1.75H364.4c-1.12,0-1.28,1.75-.15,1.75Z" style="fill:#263238"></path><path d="M275.29,210.46h39c1.5,0,1.7-2.33.2-2.33h-39c-1.49,0-1.7,2.33-.2,2.33Z" style="fill:#263238"></path><path d="M274.66,217.65H310c1.5,0,1.71-2.33.21-2.33H274.86c-1.49,0-1.7,2.33-.2,2.33Z" style="fill:#263238"></path><path d="M274,224.84H310.1c1.5,0,1.7-2.33.2-2.33H274.23c-1.49,0-1.7,2.33-.2,2.33Z" style="fill:#263238"></path><path d="M273.4,232h30.19c1.5,0,1.7-2.33.2-2.33H273.61c-1.5,0-1.71,2.33-.21,2.33Z" style="fill:#263238"></path><g style="opacity:0.2"><path d="M275.29,210.46h39c1.5,0,1.7-2.33.2-2.33h-39c-1.49,0-1.7,2.33-.2,2.33Z" style="fill:#fff"></path><path d="M274.66,217.65H310c1.5,0,1.71-2.33.21-2.33H274.86c-1.49,0-1.7,2.33-.2,2.33Z" style="fill:#fff"></path><path d="M274,224.84H310.1c1.5,0,1.7-2.33.2-2.33H274.23c-1.49,0-1.7,2.33-.2,2.33Z" style="fill:#fff"></path><path d="M273.4,232h30.19c1.5,0,1.7-2.33.2-2.33H273.61c-1.5,0-1.71,2.33-.21,2.33Z" style="fill:#fff"></path></g><g style="opacity:0.2"><path d="M320.28,264.58h35.14c1.12,0,1.27-1.74.15-1.74H320.43c-1.12,0-1.27,1.74-.15,1.74Z" style="fill:#fff"></path></g><g style="opacity:0.2"><path d="M319.65,271.77h30c1.12,0,1.28-1.74.15-1.74h-30c-1.13,0-1.28,1.74-.16,1.74Z" style="fill:#fff"></path></g><g style="opacity:0.2"><path d="M319,279h33.67c1.12,0,1.27-1.74.15-1.74H319.18c-1.13,0-1.28,1.74-.16,1.74Z" style="fill:#fff"></path></g><g style="opacity:0.2"><path d="M318.39,286.15h31.46c1.12,0,1.28-1.75.15-1.75H318.55c-1.13,0-1.28,1.75-.16,1.75Z" style="fill:#fff"></path></g><g style="opacity:0.2"><path d="M270.55,264.58h34.6c1.12,0,1.28-1.74.15-1.74H270.71c-1.13,0-1.28,1.74-.16,1.74Z" style="fill:#fff"></path></g><g style="opacity:0.2"><path d="M269.92,271.77h34.6c1.13,0,1.28-1.74.16-1.74h-34.6c-1.13,0-1.28,1.74-.16,1.74Z" style="fill:#fff"></path></g><g style="opacity:0.2"><path d="M269.3,279h39c1.12,0,1.27-1.74.15-1.74h-39c-1.12,0-1.28,1.74-.15,1.74Z" style="fill:#fff"></path></g><g style="opacity:0.2"><path d="M268.67,286.15h31.7c1.13,0,1.28-1.75.16-1.75H268.82c-1.12,0-1.28,1.75-.15,1.75Z" style="fill:#fff"></path></g><g style="opacity:0.2"><path d="M271.81,250.2h34.6c1.12,0,1.28-1.74.15-1.74H272c-1.12,0-1.27,1.74-.15,1.74Z" style="fill:#fff"></path></g><g style="opacity:0.2"><path d="M271.18,257.39h37.54c1.12,0,1.28-1.74.16-1.74H271.34c-1.13,0-1.28,1.74-.16,1.74Z" style="fill:#fff"></path></g><g style="opacity:0.2"><path d="M366.13,264.58H402c1.13,0,1.28-1.74.16-1.74H366.29c-1.13,0-1.28,1.74-.16,1.74Z" style="fill:#fff"></path></g><g style="opacity:0.2"><path d="M365.5,271.77h32.2c1.12,0,1.27-1.74.15-1.74H365.66c-1.13,0-1.28,1.74-.16,1.74Z" style="fill:#fff"></path></g><g style="opacity:0.2"><path d="M364.88,279h34.39c1.13,0,1.28-1.74.16-1.74H365c-1.12,0-1.28,1.74-.15,1.74Z" style="fill:#fff"></path></g><g style="opacity:0.2"><path d="M364.25,286.15h32.92c1.13,0,1.28-1.75.16-1.75H364.4c-1.12,0-1.28,1.75-.15,1.75Z" style="fill:#fff"></path></g><polygon points="320.21 256.52 402.71 256.52 407.11 206.19 324.62 206.19 320.21 256.52" style="fill:#fff;opacity:0.5"></polygon><polygon points="348.66 222.51 324.78 256.52 366.59 256.52 348.66 222.51" style="fill:#407BFF"></polygon><polygon points="348.66 222.51 324.78 256.52 366.59 256.52 348.66 222.51" style="fill:#fff;opacity:0.2"></polygon><polygon points="377.19 214.12 347.42 256.52 399.54 256.52 377.19 214.12" style="fill:#407BFF"></polygon><polygon points="377.19 214.12 347.42 256.52 399.54 256.52 377.19 214.12" style="fill:#fff;opacity:0.6000000000000001"></polygon><path d="M367.09,216.48a5.64,5.64,0,0,1-5.52,5.08,4.58,4.58,0,0,1-4.63-5.08,5.65,5.65,0,0,1,5.52-5.07A4.57,4.57,0,0,1,367.09,216.48Z" style="fill:#407BFF"></path><path d="M367.09,216.48a5.64,5.64,0,0,1-5.52,5.08,4.58,4.58,0,0,1-4.63-5.08,5.65,5.65,0,0,1,5.52-5.07A4.57,4.57,0,0,1,367.09,216.48Z" style="fill:#fff;opacity:0.2"></path><path d="M366.36,307.75h-68a4.47,4.47,0,0,1-4.52-5l.48-5.55a5.52,5.52,0,0,1,5.39-5h68a4.47,4.47,0,0,1,4.52,5l-.49,5.55A5.52,5.52,0,0,1,366.36,307.75Z" style="fill:#407BFF"></path><g style="opacity:0.8"><path d="M316.76,297.05a1.92,1.92,0,0,1,.91.82,2,2,0,0,1,.23,1.25,2.39,2.39,0,0,1-.45,1.25,2.46,2.46,0,0,1-1.05.82,3.87,3.87,0,0,1-1.53.29h-1.31l-.16,1.79h-1.51l.57-6.51h2.82A3.49,3.49,0,0,1,316.76,297.05ZM316,300a1.15,1.15,0,0,0,.43-.84,1,1,0,0,0-.28-.84,1.52,1.52,0,0,0-1-.29h-1.23l-.2,2.26h1.23A1.71,1.71,0,0,0,316,300Z" style="fill:#fff"></path><path d="M319.36,302.61a2.74,2.74,0,0,1-.58-2.2l.32-3.65h1.5l-.31,3.59c-.1,1.17.33,1.75,1.3,1.75a1.47,1.47,0,0,0,1.11-.42,2.11,2.11,0,0,0,.49-1.33l.32-3.59H325l-.32,3.65a3.27,3.27,0,0,1-1,2.2,3.18,3.18,0,0,1-2.24.77A2.71,2.71,0,0,1,319.36,302.61Z" style="fill:#fff"></path><path d="M331.82,300.48a1.52,1.52,0,0,1,.22,1,1.66,1.66,0,0,1-.78,1.31,3.58,3.58,0,0,1-2,.46h-3.37l.57-6.51h3.19a2.85,2.85,0,0,1,1.78.46,1.29,1.29,0,0,1,.53,1.23,1.59,1.59,0,0,1-.3.85,1.81,1.81,0,0,1-.69.59A1.5,1.5,0,0,1,331.82,300.48Zm-3.94-2.58-.13,1.53h1.5a1.58,1.58,0,0,0,.86-.2.72.72,0,0,0,.34-.57.58.58,0,0,0-.24-.57,1.43,1.43,0,0,0-.83-.19Zm2.3,4a.72.72,0,0,0,.36-.6c0-.54-.33-.81-1.13-.81h-1.76l-.14,1.61h1.76A1.73,1.73,0,0,0,330.18,301.94Z" style="fill:#fff"></path><path d="M333.6,296.76h1.51l-.46,5.28h3.26l-.11,1.23H333Z" style="fill:#fff"></path><path d="M339.22,296.76h1.51l-.57,6.51h-1.51Z" style="fill:#fff"></path><path d="M342.36,303.17a3,3,0,0,1-1.11-.54l.61-1.13a3.4,3.4,0,0,0,.95.49,3.67,3.67,0,0,0,1.14.18,1.87,1.87,0,0,0,1-.19.63.63,0,0,0,.36-.5.46.46,0,0,0-.15-.39,1.36,1.36,0,0,0-.45-.25,7.47,7.47,0,0,0-.75-.2,12,12,0,0,1-1.18-.35,1.81,1.81,0,0,1-.77-.57,1.49,1.49,0,0,1-.25-1,2,2,0,0,1,.4-1,2.29,2.29,0,0,1,1-.73,4,4,0,0,1,1.54-.27,4.81,4.81,0,0,1,1.2.15,3.31,3.31,0,0,1,1,.43l-.57,1.14a3.4,3.4,0,0,0-1.76-.51,1.84,1.84,0,0,0-.95.2.69.69,0,0,0-.35.54.47.47,0,0,0,.3.5,4.82,4.82,0,0,0,1,.32,12.32,12.32,0,0,1,1.19.35,1.84,1.84,0,0,1,.76.56,1.38,1.38,0,0,1,.25,1,1.82,1.82,0,0,1-.4,1,2.33,2.33,0,0,1-1,.73,4,4,0,0,1-1.54.27A5.12,5.12,0,0,1,342.36,303.17Z" style="fill:#fff"></path><path d="M354.18,296.76l-.57,6.51H352.1l.24-2.67h-3l-.23,2.67h-1.51l.57-6.51h1.51l-.23,2.57h3l.22-2.57Z" style="fill:#fff"></path></g></g><g id="freepik--Character--inject-52"><path d="M82.89,331.37h37.77l-7.82-53.24C110.87,264.69,99,254,86.12,254H76.33c-12.89,0-22.12,10.72-20.79,24.16l3,30Z" style="fill:#407BFF"></path><path d="M82.89,331.37h37.77l-7.82-53.24C110.87,264.69,99,254,86.12,254H76.33c-12.89,0-22.12,10.72-20.79,24.16l3,30Z" style="fill:#fff;opacity:0.1"></path><path d="M131.79,331.37H71.93l-5.26-53.24C65.35,264.69,74.57,254,87.47,254h9.78c12.9,0,24.76,10.72,26.73,24.16Z" style="fill:#407BFF"></path><path d="M131.79,331.37H71.93l-5.26-53.24C65.35,264.69,74.57,254,87.47,254h9.78c12.9,0,24.76,10.72,26.73,24.16Z" style="fill:#fff;opacity:0.30000000000000004"></path><path d="M122.37,349.66c13.42-.09,26.86-6,35.41-16.47a47.62,47.62,0,0,0,11-30c0-4.25-3.76-8.32-8.12-8.12H135.45a8.27,8.27,0,0,0-8.12,8.12c0,.91,0,1.82-.1,2.74,0,.51-.36,2.5-.18,1.62a45,45,0,0,1-1.3,5.36c-.21.64-.45,1.28-.69,1.91.14-.4-.53,1.16-.73,1.56a43.4,43.4,0,0,1-2.81,4.69c0,.07-.15.22-.25.37s-.35.45-.43.54c-.55.65-1.11,1.29-1.7,1.91s-1.35,1.37-2.06,2l-1,.84-.81.64c-.45.31-1.24.86-1.41,1-.72.47-1.45.92-2.2,1.34s-1.29.68-1.94,1c-1.34-.7-2.69-1.35-4-2.17-.73-.46-1.41-1-2.12-1.46,1.51,1-.44-.37-.86-.74a40.11,40.11,0,0,1-4-4.1l-.33-.42c.2.24-.61-.82-.73-1-.55-.79-1.07-1.61-1.55-2.45s-1-1.69-1.37-2.56c-.19-.39-.36-.79-.54-1.18.84,1.75,0-.18-.16-.47a39,39,0,0,1-1.59-5.71c-.08-.44-.13-.89-.23-1.32.42,1.93,0-.15,0-.52-.1-1.13-.14-2.27-.15-3.41,0-4.25-3.71-8.32-8.12-8.12H58.7a8.25,8.25,0,0,0-8.12,8.12A47.16,47.16,0,0,0,81.49,347a43.5,43.5,0,0,0,16.15,2.7Z" style="fill:#407BFF"></path><path d="M122.37,349.66c13.42-.09,26.86-6,35.41-16.47a47.62,47.62,0,0,0,11-30c0-4.25-3.76-8.32-8.12-8.12H135.45a8.27,8.27,0,0,0-8.12,8.12c0,.91,0,1.82-.1,2.74,0,.51-.36,2.5-.18,1.62a45,45,0,0,1-1.3,5.36c-.21.64-.45,1.28-.69,1.91.14-.4-.53,1.16-.73,1.56a43.4,43.4,0,0,1-2.81,4.69c0,.07-.15.22-.25.37s-.35.45-.43.54c-.55.65-1.11,1.29-1.7,1.91s-1.35,1.37-2.06,2l-1,.84-.81.64c-.45.31-1.24.86-1.41,1-.72.47-1.45.92-2.2,1.34s-1.29.68-1.94,1c-1.34-.7-2.69-1.35-4-2.17-.73-.46-1.41-1-2.12-1.46,1.51,1-.44-.37-.86-.74a40.11,40.11,0,0,1-4-4.1l-.33-.42c.2.24-.61-.82-.73-1-.55-.79-1.07-1.61-1.55-2.45s-1-1.69-1.37-2.56c-.19-.39-.36-.79-.54-1.18.84,1.75,0-.18-.16-.47a39,39,0,0,1-1.59-5.71c-.08-.44-.13-.89-.23-1.32.42,1.93,0-.15,0-.52-.1-1.13-.14-2.27-.15-3.41,0-4.25-3.71-8.32-8.12-8.12H58.7a8.25,8.25,0,0,0-8.12,8.12A47.16,47.16,0,0,0,81.49,347a43.5,43.5,0,0,0,16.15,2.7Z" style="fill:#fff;opacity:0.4"></path><path d="M152.58,303.17c0,.91,0,1.82-.09,2.74,0,.57-.45,3-.1,1.19a46,46,0,0,1-1.39,5.79c-.27.83-.57,1.64-.89,2.45.65-1.66-.28.54-.52,1a41.92,41.92,0,0,1-2.82,4.69c-.14.21-.94,1.33-.31.48s-.2.23-.36.43c-.56.65-1.12,1.29-1.71,1.91s-1.35,1.37-2.06,2l-1,.84c-.17.15-1.6,1.24-.68.57.75-.55-1.27.86-1.54,1-.72.47-1.45.92-2.2,1.34s-1.53.8-2.3,1.18c-.23.12-1.51.68-.52.25s-.63.24-.84.31a38.5,38.5,0,0,1-5.06,1.46c-.55.11-3,.48-1.14.26q-1.68.21-3.39.27a43.26,43.26,0,0,1-5.46-.19c-.43,0-1.5-.33.15,0-.43-.09-.88-.15-1.31-.23-1-.19-1.94-.42-2.9-.69s-1.68-.5-2.5-.79c-.41-.14-.81-.32-1.23-.45-1.12-.35,1.17.62.15.05-1.61-.88-3.27-1.62-4.82-2.61-.73-.46-1.41-1-2.12-1.46,1.51,1-.44-.37-.86-.74a40.11,40.11,0,0,1-4-4.1l-.81-1c1.22,1.52-.09-.19-.25-.42-.55-.79-1.07-1.61-1.55-2.45s-1-1.69-1.37-2.56c-.19-.39-.36-.79-.54-1.18.84,1.75,0-.18-.16-.47a39,39,0,0,1-1.59-5.71c-.08-.44-.13-.89-.23-1.32.42,1.93,0-.15,0-.52-.1-1.13-.14-2.27-.15-3.41,0-4.25-3.71-8.32-8.12-8.12a8.24,8.24,0,0,0-8.11,8.12A47.14,47.14,0,0,0,106.75,347c17.65,6.6,39.09.83,51-13.76a47.62,47.62,0,0,0,11-30c0-4.25-3.76-8.32-8.12-8.12a8.27,8.27,0,0,0-8.12,8.12Z" style="fill:#407BFF"></path><g style="opacity:0.6000000000000001"><path d="M152.58,303.17c0,.91,0,1.82-.09,2.74,0,.57-.45,3-.1,1.19a46,46,0,0,1-1.39,5.79c-.27.83-.57,1.64-.89,2.45.65-1.66-.28.54-.52,1a41.92,41.92,0,0,1-2.82,4.69c-.14.21-.94,1.33-.31.48s-.2.23-.36.43c-.56.65-1.12,1.29-1.71,1.91s-1.35,1.37-2.06,2l-1,.84c-.17.15-1.6,1.24-.68.57.75-.55-1.27.86-1.54,1-.72.47-1.45.92-2.2,1.34s-1.53.8-2.3,1.18c-.23.12-1.51.68-.52.25s-.63.24-.84.31a38.5,38.5,0,0,1-5.06,1.46c-.55.11-3,.48-1.14.26q-1.68.21-3.39.27a43.26,43.26,0,0,1-5.46-.19c-.43,0-1.5-.33.15,0-.43-.09-.88-.15-1.31-.23-1-.19-1.94-.42-2.9-.69s-1.68-.5-2.5-.79c-.41-.14-.81-.32-1.23-.45-1.12-.35,1.17.62.15.05-1.61-.88-3.27-1.62-4.82-2.61-.73-.46-1.41-1-2.12-1.46,1.51,1-.44-.37-.86-.74a40.11,40.11,0,0,1-4-4.1l-.81-1c1.22,1.52-.09-.19-.25-.42-.55-.79-1.07-1.61-1.55-2.45s-1-1.69-1.37-2.56c-.19-.39-.36-.79-.54-1.18.84,1.75,0-.18-.16-.47a39,39,0,0,1-1.59-5.71c-.08-.44-.13-.89-.23-1.32.42,1.93,0-.15,0-.52-.1-1.13-.14-2.27-.15-3.41,0-4.25-3.71-8.32-8.12-8.12a8.24,8.24,0,0,0-8.11,8.12A47.14,47.14,0,0,0,106.75,347c17.65,6.6,39.09.83,51-13.76a47.62,47.62,0,0,0,11-30c0-4.25-3.76-8.32-8.12-8.12a8.27,8.27,0,0,0-8.12,8.12Z" style="fill:#fff"></path></g><path d="M112.11,400.67l-.93-.55V349.66a2.19,2.19,0,0,0-2.19-2.18h-6.16a2.18,2.18,0,0,0-2.18,2.18v50.46l-.94.55A39.54,39.54,0,0,1,79.84,406h0a5.42,5.42,0,0,0-5.42,5.41h63A5.41,5.41,0,0,0,132,406h0A39.54,39.54,0,0,1,112.11,400.67Z" style="fill:#407BFF"></path><path d="M111.18,355.06v-5.4a2.19,2.19,0,0,0-2.19-2.18h-6.16a2.18,2.18,0,0,0-2.18,2.18v5.4Z" style="opacity:0.2"></path><path d="M117,208s-11.73,12.5-4.76,21.93l-.17-3.2s1,5.74,16,6.81,11.13-8.68,11.13-8.68,1,2.86,3.24,3.18c0,0-2.82-3.14-1.77-9.07s5.37-9-1.47-14c0,0,.56-5.4-11.5-4S117,208,117,208Z" style="fill:#2e353a"></path><path d="M146.56,240.27c-2.13-.26-3.49-3.3-3.2-5.64s2.36-5,4.49-4.69a1.57,1.57,0,0,1,1.11.61c.62.8.43,2.11.2,3.78,0,.32-.09.66-.14,1s-.08.69-.11,1c-.18,1.67-.33,3-1.12,3.61A1.57,1.57,0,0,1,146.56,240.27Zm1.11-8.89c-.84-.1-2.59,1.24-2.86,3.43s1.09,3.91,1.93,4c.11,0,.13,0,.15,0,.31-.25.45-1.57.57-2.63,0-.33.07-.67.12-1s.09-.7.14-1c.14-1.05.33-2.37.09-2.68C147.8,231.42,147.78,231.4,147.67,231.38Z" style="fill:#407BFF"></path><g style="opacity:0.5"><path d="M146.56,240.27c-2.13-.26-3.49-3.3-3.2-5.64s2.36-5,4.49-4.69a1.57,1.57,0,0,1,1.11.61c.62.8.43,2.11.2,3.78,0,.32-.09.66-.14,1s-.08.69-.11,1c-.18,1.67-.33,3-1.12,3.61A1.57,1.57,0,0,1,146.56,240.27Zm1.11-8.89c-.84-.1-2.59,1.24-2.86,3.43s1.09,3.91,1.93,4c.11,0,.13,0,.15,0,.31-.25.45-1.57.57-2.63,0-.33.07-.67.12-1s.09-.7.14-1c.14-1.05.33-2.37.09-2.68C147.8,231.42,147.78,231.4,147.67,231.38Z"></path></g><path d="M163.48,255.05s-27.06-21.72-29.35-13.73C131.08,252,162,261.11,162,261.11S164.84,261.6,163.48,255.05Z" style="fill:#407BFF"></path><path d="M160.47,258.81c2.69,1.5,2.3-1.61,1.2-5.18-1.76-1.36-4.64-3.51-7.89-5.74C154.5,250.78,156.41,256.56,160.47,258.81Z" style="opacity:0.2"></path><path d="M139.53,241.81l-1.57,2.5v5.29a43.49,43.49,0,0,0,8.93,5.61h0c-5.58-3.1-7-12.78-7-12.78Z" style="opacity:0.2"></path><path d="M107.13,238.61a3,3,0,0,0-3.06,3.07c.24,8.61.77,32.56-.44,41.95-.93,7.28-6.61,28.59-6.61,28.59l40.23-17.94s-.58-13.38,0-17.79c.53-4.08,3.9-11.79,4.23-15.88.27-3.38-1.27-10.1-1.37-13.49,0-1.22.1-3.77.2-5.48a1.68,1.68,0,0,0-1.61-1.78Z" style="fill:#407BFF"></path><polygon points="197.06 371.15 199.8 382.97 194.06 384.29 190.62 373.29 197.06 371.15" style="fill:#b97964"></polygon><path d="M201.58,382.93a.18.18,0,0,1-.16-.1.17.17,0,0,1,0-.18c.09-.08,2.08-1.9,3.24-1.85a.88.88,0,0,1,.57.25.59.59,0,0,1,.16.67c-.19.41-1,.75-1.81.94A11.76,11.76,0,0,1,201.58,382.93Zm.45-.32c1.25-.13,2.9-.52,3.11-1,0-.06.05-.17-.11-.33a.44.44,0,0,0-.35-.15.82.82,0,0,0-.31,0A7.31,7.31,0,0,0,202,382.61Z" style="fill:#407BFF"></path><path d="M201.49,382.94a.17.17,0,0,1-.1-.13,4.53,4.53,0,0,1,.44-2.76,1.2,1.2,0,0,1,.81-.46c.43-.06.61.13.67.3.31.71-.94,2.48-1.65,3l-.06,0A.14.14,0,0,1,201.49,382.94Zm1.11-3a.8.8,0,0,0-.49.31,3.78,3.78,0,0,0-.42,2.21c.71-.67,1.49-2,1.34-2.45,0,0-.06-.14-.34-.1l-.09,0Z" style="fill:#407BFF"></path><path d="M200.7,382.16l-7.15,1.63a.59.59,0,0,0-.46.57l0,6.11a1,1,0,0,0,1,1l.21,0c2.56-.63,4.82-1.29,8-2,3.79-.86,2.93-.19,7.39-1.14,2.69-.57,2.49-3.73,1.32-3.62-5.35.52-6.25-.92-8.68-2.33A2.36,2.36,0,0,0,200.7,382.16Z" style="fill:#263238"></path><polygon points="199.03 379.65 197.06 371.15 190.62 373.29 193.23 381.65 199.03 379.65" style="opacity:0.1"></polygon><path d="M97.55,322c-3.55-8.53-1.06-22.32,26.73-27.52,22.81-4.28,37.64-2.58,45.45-.76a13.35,13.35,0,0,1,9.35,8c3.92,9.61,10.22,25.81,19.57,73.52l-7.06,3s-7.72-23.06-11.82-32.47c-3.7-8.48-11.65-21.88-14.12-34.23,0,0-10.92,3.83-24.17,10.14C124.87,329.55,104.59,338.94,97.55,322Z" style="fill:#263238"></path><polygon points="190.18 376.4 191.9 380.57 199.8 377.63 198.98 373.29 190.18 376.4" style="fill:#263238"></polygon><polygon points="190.18 376.4 191.9 380.57 199.8 377.63 198.98 373.29 190.18 376.4" style="fill:#fff;opacity:0.2"></polygon><path d="M165.43,311.59l.22-.08A82.71,82.71,0,0,0,171.74,329c1.49-6.46,3.27-15.6,1.95-17.37-2.1-2.8-8.26,0-8.26,0Z" style="opacity:0.1"></path><polygon points="146.13 392.81 144.33 404.67 150.02 404.67 153.19 393.29 146.13 392.81" style="fill:#b97964"></polygon><path d="M151.49,404.91a.17.17,0,0,1-.14-.12.17.17,0,0,1,.08-.17c.1-.06,2.4-1.46,3.53-1.19a.82.82,0,0,1,.51.36.59.59,0,0,1,0,.69,2.81,2.81,0,0,1-2,.57A11.78,11.78,0,0,1,151.49,404.91Zm.51-.22c1.25.12,2.94.06,3.24-.38,0-.06.08-.16,0-.35a.41.41,0,0,0-.32-.21,1,1,0,0,0-.3,0A7.23,7.23,0,0,0,152,404.69Z" style="fill:#407BFF"></path><path d="M151.4,404.91a.14.14,0,0,1-.07-.14,4.48,4.48,0,0,1,1-2.63,1.23,1.23,0,0,1,.88-.3c.44,0,.58.25.6.44.16.75-1.41,2.25-2.2,2.62a.09.09,0,0,1-.07,0Zm1.68-2.76a.86.86,0,0,0-.55.21,3.81,3.81,0,0,0-.83,2.09c.82-.52,1.84-1.69,1.79-2.14,0,0,0-.15-.32-.17Z" style="fill:#407BFF"></path><path d="M150.78,404l-7.33.2a.59.59,0,0,0-.56.48l-1.17,6a1,1,0,0,0,.77,1.15.75.75,0,0,0,.21,0c2.64-.12,5-.33,8.27-.41,3.88-.1,2.91.39,7.47.33,2.75,0,3.17-3.18,2-3.3-5.35-.53-5.95-2.12-8.06-4A2.38,2.38,0,0,0,150.78,404Z" style="fill:#263238"></path><polygon points="150.9 401.51 153.19 393.29 146.13 392.81 144.81 401.51 150.9 401.51" style="opacity:0.1"></polygon><path d="M171.3,315.39a7.4,7.4,0,0,0-5.87-3.8c-1.58.57-11.78,4.26-24,10.06-8.28,3.94-17.48,8.25-25.49,9.48h0l39.61-2.33c-3.89,11.3-4.83,28.94-6,38.64-1.14,9.41-4.59,29.47-4.59,29.47h7.59S174.65,321.57,171.3,315.39Z" style="fill:#263238"></path><path d="M171.3,315.39a7.4,7.4,0,0,0-5.87-3.8c-1.58.57-11.78,4.26-24,10.06-8.28,3.94-17.48,8.25-25.49,9.48h0l39.61-2.33c-3.89,11.3-4.83,28.94-6,38.64-1.14,9.41-4.59,29.47-4.59,29.47h7.59S174.65,321.57,171.3,315.39Z" style="opacity:0.4"></path><polygon points="144.34 395.7 143.76 400.21 152.71 400.07 153.65 395.75 144.34 395.7" style="fill:#263238"></polygon><polygon points="144.34 395.7 143.76 400.21 152.71 400.07 153.65 395.75 144.34 395.7" style="fill:#fff;opacity:0.2"></polygon><path d="M158.61,238.69,157,235.64l-6.24-5.25a1.73,1.73,0,0,0-2.21,0L145.4,233a1.71,1.71,0,0,0-.59,1.67l.67,3.3A1.71,1.71,0,0,0,147,239.3c2,.15,5.74.27,6.63-.83l.93,2.73Z" style="fill:#b97964"></path><path d="M140.59,227.91h4a2.29,2.29,0,0,1,2.29,2.29v8a3.84,3.84,0,0,1-3.84,3.84h-.91a3.84,3.84,0,0,1-3.84-3.84v-8A2.29,2.29,0,0,1,140.59,227.91Z" style="fill:#407BFF"></path><path d="M140.59,227.91h4a2.29,2.29,0,0,1,2.29,2.29v8a3.84,3.84,0,0,1-3.84,3.84h-.91a3.84,3.84,0,0,1-3.84-3.84v-8A2.29,2.29,0,0,1,140.59,227.91Z" style="opacity:0.4"></path><path d="M120.93,224.86c.46,4.27.62,12-2.56,14.57a48.49,48.49,0,0,0,10.26,7.29c5-3.45,2.78-7.15,2.78-7.15-4-1.12-4.16-5-3.11-8.17Z" style="fill:#b97964"></path><path d="M128.3,231.4l-5-4.46-1.12.55s1.27,5.64,5.62,7.51A9.93,9.93,0,0,1,128.3,231.4Z" style="opacity:0.1"></path><path d="M118.54,214.69c.21,7.05.14,10,3.57,13.76,5.16,5.6,13.76,3.81,15.68-3.15,1.71-6.26,1.1-16.72-5.69-19.75a9.62,9.62,0,0,0-13.56,9.14Z" style="fill:#b97964"></path><path d="M124.76,202.08c-1.66,1.76.43,6.23,6.74,7.3,4.75.82,9.48,7.22,10.26,1.66C142.5,206,131.26,200.89,124.76,202.08Z" style="fill:#2e353a"></path><path d="M127.82,204.36c2.67,3.24-.54,7.28-2.57,9s-4.89,3-3.73,6.49.53,12.06-5.09,9.23-3.05-12.71-.26-16.89S124.63,200.51,127.82,204.36Z" style="fill:#2e353a"></path><path d="M133.85,218.14a15.32,15.32,0,0,0,1.92,3.73,2.47,2.47,0,0,1-2.05.32Z" style="fill:#a24e3f"></path><path d="M126.61,214.08a.21.21,0,0,1-.12-.07.27.27,0,0,1,0-.39h0a3.28,3.28,0,0,1,2.84-1,.28.28,0,0,1,.21.33.28.28,0,0,1-.32.22,2.73,2.73,0,0,0-2.33.87A.27.27,0,0,1,126.61,214.08Z" style="fill:#2e353a"></path><path d="M138.74,214.58a.47.47,0,0,1-.12-.07,2.74,2.74,0,0,0-2.38-.72.27.27,0,0,1-.34-.19h0a.28.28,0,0,1,.2-.34,3.29,3.29,0,0,1,2.9.85.27.27,0,0,1,0,.39.28.28,0,0,1-.29.09Z" style="fill:#2e353a"></path><path d="M129.84,217.07c0,.56.27,1,.65,1.05s.69-.43.7-1-.27-1-.64-1.06S129.86,216.49,129.84,217.07Z" style="fill:#2e353a"></path><path d="M136.31,217.28c0,.57.27,1,.64,1.06s.69-.44.71-1-.27-1-.64-1S136.33,216.7,136.31,217.28Z" style="fill:#2e353a"></path><path d="M136.86,216.29l1.39-.35S137.5,217,136.86,216.29Z" style="fill:#2e353a"></path><path d="M130.39,216.08l1.38-.35S131,216.78,130.39,216.08Z" style="fill:#2e353a"></path><path d="M116.28,238.88a2.89,2.89,0,0,0-3.19,0s-1.46-.9-2.13-.12c0,0,9.53,18.19,8.15,30.61a176,176,0,0,0-1.26,20.29s3.44-1.59,5.16-1a4.83,4.83,0,0,0,3.53-.37s-.9-13.76-.76-20.19c.33-14.77-7.91-28.69-7.91-28.69Z" style="fill:#407BFF"></path><path d="M116.28,238.88a2.89,2.89,0,0,0-3.19,0s-1.46-.9-2.13-.12c0,0,9.53,18.19,8.15,30.61a176,176,0,0,0-1.26,20.29s3.44-1.59,5.16-1a4.83,4.83,0,0,0,3.53-.37s-.9-13.76-.76-20.19c.33-14.77-7.91-28.69-7.91-28.69Z" style="opacity:0.30000000000000004"></path><path d="M130.73,224.68a4.11,4.11,0,0,0,3,1,.16.16,0,0,0,.14-.14.13.13,0,0,0-.13-.14h0a3.88,3.88,0,0,1-3.17-1.32.14.14,0,0,0-.18,0h0a.15.15,0,0,0,0,.2C130.48,224.44,130.6,224.56,130.73,224.68Z" style="fill:#2e353a"></path><path d="M153.76,239.42s4,25.09,9.71,21.37c4.95-3.21-2.72-18.83-5-23.4a.69.69,0,0,0-1.18-.08A5.33,5.33,0,0,1,153.76,239.42Z" style="fill:#407BFF"></path><path d="M119.65,236.65s5.21,7.43,9.89,6c3.56-1.07-.26-4.23-.26-4.23a2.59,2.59,0,0,1,2.12.43s.72-.35,1.7.86c0,0,3.78,8.62-2.09,9.83-8.74,1.8-14.73-10.69-14.73-10.69s1.09-1.34,2.09-1C118.37,237.92,117.93,236.78,119.65,236.65Z" style="fill:#407BFF"></path><path d="M119.65,236.65s5.21,7.43,9.89,6c3.56-1.07-.26-4.23-.26-4.23a2.59,2.59,0,0,1,2.12.43s.72-.35,1.7.86c0,0,3.78,8.62-2.09,9.83-8.74,1.8-14.73-10.69-14.73-10.69s1.09-1.34,2.09-1C118.37,237.92,117.93,236.78,119.65,236.65Z" style="opacity:0.30000000000000004"></path><path d="M138,275.21l-13.45-.63L106.3,239.81a.9.9,0,0,0-.2.14,5.72,5.72,0,0,0-2,3.88c0,.86,0,1.79.06,2.81.76,5.54,5,14.9,15.47,31.63a6.22,6.22,0,0,0,5.53,2.92l12.77-.93C137.93,278.68,137.93,277,138,275.21Z" style="opacity:0.2"></path><path d="M120.18,240.37s7.23,6.09,10.46,4.77c2.09-.86,1.26-3.57,1.26-3.57s2.8,5.15-1.14,5.85C126.33,248.2,120.18,240.37,120.18,240.37Z" style="opacity:0.2"></path><path d="M116.86,240l3.5,4.93A7,7,0,0,1,116.86,240Z" style="opacity:0.2"></path><path d="M132.3,239.61a3.78,3.78,0,0,1,3.44.13s1.29,6.57,2.15,10.87,1.21,9.72.37,18.39a143.69,143.69,0,0,0-.06,17.9,3.4,3.4,0,0,0-3.5,0,2.23,2.23,0,0,1-3.08-.62s.51-8.87,2-17.34a76.2,76.2,0,0,0-.19-24.05Z" style="fill:#407BFF"></path><path d="M132.3,239.61a3.78,3.78,0,0,1,3.44.13s1.29,6.57,2.15,10.87,1.21,9.72.37,18.39a143.69,143.69,0,0,0-.06,17.9,3.4,3.4,0,0,0-3.5,0,2.23,2.23,0,0,1-3.08-.62s.51-8.87,2-17.34a76.2,76.2,0,0,0-.19-24.05Z" style="opacity:0.30000000000000004"></path><path d="M133.41,241.2s1.37,1.68.69,5.52C134.1,246.72,136.59,244.55,133.41,241.2Z" style="opacity:0.2"></path><path d="M117.11,222.52a5.14,5.14,0,0,0,3,2.52c1.73.52,2.63-1,2.18-2.67-.4-1.48-1.79-3.55-3.54-3.35a2.32,2.32,0,0,0-2,2.64A2.17,2.17,0,0,0,117.11,222.52Z" style="fill:#b97964"></path><path d="M155.78,271.87h2.59l7.82-1.47a2.51,2.51,0,0,1,2.33.82l5.9,6.56-3.42.11-3.18-1.1s-4.62,2.37-11.5-.74Z" style="fill:#b97964"></path><path d="M126.76,269.62s-15.91-35-21.34-29.69c-3.76,3.68-2.57,11.33,15.52,36.81a6.15,6.15,0,0,0,5.6,2.55l30.47-2a16.53,16.53,0,0,1,0-6.17Z" style="fill:#407BFF"></path></g><g id="freepik--Table--inject-52"><path d="M209.64,400.67l-.93-.55V293.35a2.19,2.19,0,0,0-2.18-2.18h-6.17a2.18,2.18,0,0,0-2.18,2.18V400.12l-.94.55A39.51,39.51,0,0,1,177.37,406h0a5.42,5.42,0,0,0-5.42,5.41h63a5.41,5.41,0,0,0-5.41-5.41h0A39.57,39.57,0,0,1,209.64,400.67Z" style="fill:#407BFF"></path><path d="M208.71,298.75v-5.4a2.19,2.19,0,0,0-2.18-2.18h-6.17a2.18,2.18,0,0,0-2.18,2.18v5.4Z" style="opacity:0.2"></path><path d="M153.23,287.61H253.65a0,0,0,0,1,0,0v2.93a3.47,3.47,0,0,1-3.47,3.47H156.7a3.47,3.47,0,0,1-3.47-3.47v-2.93A0,0,0,0,1,153.23,287.61Z" style="fill:#407BFF"></path><path d="M153.23,287.61H253.65a0,0,0,0,1,0,0v2.93a3.47,3.47,0,0,1-3.47,3.47H156.7a3.47,3.47,0,0,1-3.47-3.47v-2.93A0,0,0,0,1,153.23,287.61Z" style="fill:#fff;opacity:0.30000000000000004"></path><rect x="146.44" y="281.22" width="114" height="6.4" rx="3.2" style="fill:#407BFF"></rect><rect x="146.44" y="281.22" width="114" height="6.4" rx="3.2" style="fill:#fff;opacity:0.4"></rect><path d="M204.47,292.3v-4.69H153.23v4.69a1.59,1.59,0,0,0,1.43,1.71H203A1.59,1.59,0,0,0,204.47,292.3Z" style="opacity:0.2"></path><path d="M211.26,285.34V283.5a2.12,2.12,0,0,0-1.9-2.28h-61a2.12,2.12,0,0,0-1.91,2.28v1.84a2.11,2.11,0,0,0,1.91,2.27h61A2.11,2.11,0,0,0,211.26,285.34Z" style="opacity:0.2"></path></g><g id="freepik--device-1--inject-52"><path d="M217.56,281.15H184.11a3.26,3.26,0,0,1-3.26-3.26h40A3.26,3.26,0,0,1,217.56,281.15Z" style="fill:#263238"></path><path d="M217.56,281.15H184.11a3.26,3.26,0,0,1-3.26-3.26h40A3.26,3.26,0,0,1,217.56,281.15Z" style="fill:#fff;opacity:0.2"></path><path d="M194.19,281.15H160.74a3.26,3.26,0,0,1-3.26-3.26h40A3.26,3.26,0,0,1,194.19,281.15Z" style="fill:#263238"></path><path d="M194.19,281.15H160.74a3.26,3.26,0,0,1-3.26-3.26h40A3.26,3.26,0,0,1,194.19,281.15Z" style="fill:#fff;opacity:0.5"></path><path d="M217.83,280.16h-20.4a.77.77,0,0,1-.72-1l11.18-31.95a2.2,2.2,0,0,1,2.07-1.47h20.39a.77.77,0,0,1,.73,1L219.9,278.69A2.2,2.2,0,0,1,217.83,280.16Z" style="fill:#263238"></path><path d="M217.83,280.16h-20.4a.77.77,0,0,1-.72-1l11.18-31.95a2.2,2.2,0,0,1,2.07-1.47h20.39a.77.77,0,0,1,.73,1L219.9,278.69A2.2,2.2,0,0,1,217.83,280.16Z" style="fill:#fff;opacity:0.5"></path><path d="M218.81,280.16H198.42a.77.77,0,0,1-.73-1l11.18-31.95a2.2,2.2,0,0,1,2.07-1.47h20.4a.78.78,0,0,1,.73,1l-11.19,31.95A2.2,2.2,0,0,1,218.81,280.16Z" style="fill:#263238"></path><path d="M218.81,280.16H198.42a.77.77,0,0,1-.73-1l11.18-31.95a2.2,2.2,0,0,1,2.07-1.47h20.4a.78.78,0,0,1,.73,1l-11.19,31.95A2.2,2.2,0,0,1,218.81,280.16Z" style="fill:#fff;opacity:0.7000000000000001"></path><path d="M216.53,262.94c-.26,1.22-1.11,2.21-1.89,2.21s-1.21-1-.95-2.21,1.11-2.22,1.89-2.22S216.79,261.71,216.53,262.94Z" style="fill:#fff"></path></g></svg>